<mxfile host="app.diagrams.net" agent="Mozilla/5.0 (X11; Linux x86_64; rv:140.0) Gecko/20100101 Firefox/140.0" version="28.0.7">
  <diagram name="CafeManagementERD" id="hSqldhWYm18fA5RQ3NfL">
    <mxGraphModel dx="1678" dy="791" grid="1" gridSize="10" guides="1" tooltips="1" connect="1" arrows="1" fold="1" page="1" pageScale="1" pageWidth="850" pageHeight="1100" math="0" shadow="0">
      <root>
        <mxCell id="0" />
        <mxCell id="1" parent="0" />
        <mxCell id="CNSBDvhkYtrQtubJyw7s-134" value="Customer" style="shape=rectangle;whiteSpace=wrap;html=1;" parent="1" vertex="1">
          <mxGeometry x="80" y="120" width="80" height="40" as="geometry" />
        </mxCell>
        <mxCell id="CNSBDvhkYtrQtubJyw7s-135" value="Order" style="shape=rectangle;whiteSpace=wrap;html=1;" parent="1" vertex="1">
          <mxGeometry x="320" y="120" width="80" height="40" as="geometry" />
        </mxCell>
        <mxCell id="CNSBDvhkYtrQtubJyw7s-136" value="MenuItem" style="shape=rectangle;whiteSpace=wrap;html=1;" parent="1" vertex="1">
          <mxGeometry x="560" y="120" width="100" height="40" as="geometry" />
        </mxCell>
        <mxCell id="CNSBDvhkYtrQtubJyw7s-137" value="Employee" style="shape=rectangle;whiteSpace=wrap;html=1;" parent="1" vertex="1">
          <mxGeometry x="117.14" y="240" width="80" height="40" as="geometry" />
        </mxCell>
        <mxCell id="CNSBDvhkYtrQtubJyw7s-138" value="Table" style="shape=rectangle;whiteSpace=wrap;html=1;" parent="1" vertex="1">
          <mxGeometry x="360" y="360" width="80" height="40" as="geometry" />
        </mxCell>
        <mxCell id="CNSBDvhkYtrQtubJyw7s-139" value="Payment" style="shape=rectangle;whiteSpace=wrap;html=1;" parent="1" vertex="1">
          <mxGeometry x="320" y="560" width="80" height="40" as="geometry" />
        </mxCell>
        <mxCell id="CNSBDvhkYtrQtubJyw7s-140" value="Supplier" style="shape=rectangle;whiteSpace=wrap;html=1;" parent="1" vertex="1">
          <mxGeometry x="600" y="240" width="80" height="40" as="geometry" />
        </mxCell>
        <mxCell id="CNSBDvhkYtrQtubJyw7s-141" value="InventoryItem" style="shape=rectangle;whiteSpace=wrap;html=1;" parent="1" vertex="1">
          <mxGeometry x="720" y="340" width="120" height="40" as="geometry" />
        </mxCell>
        <mxCell id="CNSBDvhkYtrQtubJyw7s-142" value="CustomerID (PK)" style="shape=ellipse;whiteSpace=wrap;html=1;" parent="1" vertex="1">
          <mxGeometry x="10" y="60" width="80" height="30" as="geometry" />
        </mxCell>
        <mxCell id="CNSBDvhkYtrQtubJyw7s-143" value="Name" style="shape=ellipse;whiteSpace=wrap;html=1;" parent="1" vertex="1">
          <mxGeometry x="100" y="60" width="60" height="30" as="geometry" />
        </mxCell>
        <mxCell id="CNSBDvhkYtrQtubJyw7s-144" value="Email" style="shape=ellipse;whiteSpace=wrap;html=1;" parent="1" vertex="1">
          <mxGeometry x="90" y="180" width="60" height="30" as="geometry" />
        </mxCell>
        <mxCell id="CNSBDvhkYtrQtubJyw7s-145" value="Phone" style="shape=ellipse;whiteSpace=wrap;html=1;" parent="1" vertex="1">
          <mxGeometry x="10" y="125" width="60" height="30" as="geometry" />
        </mxCell>
        <mxCell id="CNSBDvhkYtrQtubJyw7s-146" value="OrderID (PK)" style="shape=ellipse;whiteSpace=wrap;html=1;" parent="1" vertex="1">
          <mxGeometry x="277.14" y="50" width="80" height="30" as="geometry" />
        </mxCell>
        <mxCell id="CNSBDvhkYtrQtubJyw7s-147" value="OrderDate" style="shape=ellipse;whiteSpace=wrap;html=1;" parent="1" vertex="1">
          <mxGeometry x="400" y="50" width="80" height="30" as="geometry" />
        </mxCell>
        <mxCell id="CNSBDvhkYtrQtubJyw7s-148" value="ItemID (PK)" style="shape=ellipse;whiteSpace=wrap;html=1;" parent="1" vertex="1">
          <mxGeometry x="640" y="50" width="80" height="30" as="geometry" />
        </mxCell>
        <mxCell id="CNSBDvhkYtrQtubJyw7s-149" value="Name" style="shape=ellipse;whiteSpace=wrap;html=1;" parent="1" vertex="1">
          <mxGeometry x="740" y="100" width="60" height="30" as="geometry" />
        </mxCell>
        <mxCell id="CNSBDvhkYtrQtubJyw7s-150" value="Price" style="shape=ellipse;whiteSpace=wrap;html=1;" parent="1" vertex="1">
          <mxGeometry x="690" y="150" width="60" height="30" as="geometry" />
        </mxCell>
        <mxCell id="CNSBDvhkYtrQtubJyw7s-151" value="Category" style="shape=ellipse;whiteSpace=wrap;html=1;" parent="1" vertex="1">
          <mxGeometry x="540" y="50" width="80" height="30" as="geometry" />
        </mxCell>
        <mxCell id="CNSBDvhkYtrQtubJyw7s-152" value="EmployeeID (PK)" style="shape=ellipse;whiteSpace=wrap;html=1;" parent="1" vertex="1">
          <mxGeometry x="10" y="245" width="80" height="30" as="geometry" />
        </mxCell>
        <mxCell id="CNSBDvhkYtrQtubJyw7s-153" value="Name" style="shape=ellipse;whiteSpace=wrap;html=1;" parent="1" vertex="1">
          <mxGeometry x="90" y="330" width="60" height="30" as="geometry" />
        </mxCell>
        <mxCell id="CNSBDvhkYtrQtubJyw7s-154" value="Role" style="shape=ellipse;whiteSpace=wrap;html=1;" parent="1" vertex="1">
          <mxGeometry x="160" y="330" width="60" height="30" as="geometry" />
        </mxCell>
        <mxCell id="CNSBDvhkYtrQtubJyw7s-155" value="Phone" style="shape=ellipse;whiteSpace=wrap;html=1;" parent="1" vertex="1">
          <mxGeometry x="20" y="300" width="60" height="30" as="geometry" />
        </mxCell>
        <mxCell id="CNSBDvhkYtrQtubJyw7s-156" value="TableID (PK)" style="shape=ellipse;whiteSpace=wrap;html=1;" parent="1" vertex="1">
          <mxGeometry x="440" y="440" width="80" height="30" as="geometry" />
        </mxCell>
        <mxCell id="CNSBDvhkYtrQtubJyw7s-157" value="Capacity" style="shape=ellipse;whiteSpace=wrap;html=1;" parent="1" vertex="1">
          <mxGeometry x="530" y="400" width="60" height="30" as="geometry" />
        </mxCell>
        <mxCell id="CNSBDvhkYtrQtubJyw7s-158" value="PaymentID (PK)" style="shape=ellipse;whiteSpace=wrap;html=1;" parent="1" vertex="1">
          <mxGeometry x="200" y="520" width="80" height="30" as="geometry" />
        </mxCell>
        <mxCell id="CNSBDvhkYtrQtubJyw7s-159" value="Amount" style="shape=ellipse;whiteSpace=wrap;html=1;" parent="1" vertex="1">
          <mxGeometry x="440" y="565" width="60" height="30" as="geometry" />
        </mxCell>
        <mxCell id="CNSBDvhkYtrQtubJyw7s-160" value="Method" style="shape=ellipse;whiteSpace=wrap;html=1;" parent="1" vertex="1">
          <mxGeometry x="330" y="630" width="60" height="30" as="geometry" />
        </mxCell>
        <mxCell id="CNSBDvhkYtrQtubJyw7s-161" value="PaidAt" style="shape=ellipse;whiteSpace=wrap;html=1;" parent="1" vertex="1">
          <mxGeometry x="200" y="600" width="80" height="30" as="geometry" />
        </mxCell>
        <mxCell id="CNSBDvhkYtrQtubJyw7s-162" value="SupplierID (PK)" style="shape=ellipse;whiteSpace=wrap;html=1;" parent="1" vertex="1">
          <mxGeometry x="480" y="240" width="80" height="40" as="geometry" />
        </mxCell>
        <mxCell id="CNSBDvhkYtrQtubJyw7s-163" value="Name" style="shape=ellipse;whiteSpace=wrap;html=1;" parent="1" vertex="1">
          <mxGeometry x="550" y="295" width="60" height="30" as="geometry" />
        </mxCell>
        <mxCell id="CNSBDvhkYtrQtubJyw7s-165" value="Email" style="shape=ellipse;whiteSpace=wrap;html=1;" parent="1" vertex="1">
          <mxGeometry x="600" y="190" width="80" height="30" as="geometry" />
        </mxCell>
        <mxCell id="CNSBDvhkYtrQtubJyw7s-166" value="InventoryID (PK)" style="shape=ellipse;whiteSpace=wrap;html=1;" parent="1" vertex="1">
          <mxGeometry x="760" y="430" width="90" height="30" as="geometry" />
        </mxCell>
        <mxCell id="CNSBDvhkYtrQtubJyw7s-167" value="Name" style="shape=ellipse;whiteSpace=wrap;html=1;" parent="1" vertex="1">
          <mxGeometry x="690" y="430" width="60" height="30" as="geometry" />
        </mxCell>
        <mxCell id="CNSBDvhkYtrQtubJyw7s-168" value="QuantityInStock" style="shape=ellipse;whiteSpace=wrap;html=1;" parent="1" vertex="1">
          <mxGeometry x="750" y="240" width="100" height="30" as="geometry" />
        </mxCell>
        <mxCell id="CNSBDvhkYtrQtubJyw7s-169" value="Unit" style="shape=ellipse;whiteSpace=wrap;html=1;" parent="1" vertex="1">
          <mxGeometry x="700" y="280" width="40" height="30" as="geometry" />
        </mxCell>
        <mxCell id="CNSBDvhkYtrQtubJyw7s-170" value="Places" style="shape=rhombus;whiteSpace=wrap;html=1;" parent="1" vertex="1">
          <mxGeometry x="200" y="100" width="80" height="80" as="geometry" />
        </mxCell>
        <mxCell id="CNSBDvhkYtrQtubJyw7s-171" value="Includes" style="shape=rhombus;whiteSpace=wrap;html=1;" parent="1" vertex="1">
          <mxGeometry x="440" y="100" width="80" height="80" as="geometry" />
        </mxCell>
        <mxCell id="CNSBDvhkYtrQtubJyw7s-172" value="Takes" style="shape=rhombus;whiteSpace=wrap;html=1;" parent="1" vertex="1">
          <mxGeometry x="220" y="220" width="80" height="80" as="geometry" />
        </mxCell>
        <mxCell id="CNSBDvhkYtrQtubJyw7s-173" value="DineAt" style="shape=rhombus;whiteSpace=wrap;html=1;" parent="1" vertex="1">
          <mxGeometry x="370" y="245" width="60" height="80" as="geometry" />
        </mxCell>
        <mxCell id="CNSBDvhkYtrQtubJyw7s-174" value="Paid" style="shape=rhombus;whiteSpace=wrap;html=1;" parent="1" vertex="1">
          <mxGeometry x="330" y="470" width="60" height="60" as="geometry" />
        </mxCell>
        <mxCell id="CNSBDvhkYtrQtubJyw7s-175" value="Supplies" style="shape=rhombus;whiteSpace=wrap;html=1;" parent="1" vertex="1">
          <mxGeometry x="600" y="320" width="80" height="80" as="geometry" />
        </mxCell>
        <mxCell id="CNSBDvhkYtrQtubJyw7s-176" value="Quantity" style="shape=ellipse;whiteSpace=wrap;html=1;" parent="1" vertex="1">
          <mxGeometry x="520" y="190" width="60" height="20" as="geometry" />
        </mxCell>
        <mxCell id="X1T7yPIizh35POFXKc_R-5" value="" style="endArrow=none;html=1;rounded=0;entryX=0.25;entryY=1;entryDx=0;entryDy=0;exitX=1;exitY=0.5;exitDx=0;exitDy=0;" edge="1" parent="1" source="CNSBDvhkYtrQtubJyw7s-172" target="CNSBDvhkYtrQtubJyw7s-135">
          <mxGeometry width="50" height="50" relative="1" as="geometry">
            <mxPoint x="280" y="260" as="sourcePoint" />
            <mxPoint x="340" y="190" as="targetPoint" />
            <Array as="points">
              <mxPoint x="340" y="260" />
            </Array>
          </mxGeometry>
        </mxCell>
        <mxCell id="X1T7yPIizh35POFXKc_R-6" value="" style="endArrow=none;html=1;rounded=0;exitX=1;exitY=0.5;exitDx=0;exitDy=0;entryX=0;entryY=0.5;entryDx=0;entryDy=0;" edge="1" parent="1" source="CNSBDvhkYtrQtubJyw7s-137" target="CNSBDvhkYtrQtubJyw7s-172">
          <mxGeometry width="50" height="50" relative="1" as="geometry">
            <mxPoint x="290" y="270" as="sourcePoint" />
            <mxPoint x="200" y="260" as="targetPoint" />
          </mxGeometry>
        </mxCell>
        <mxCell id="X1T7yPIizh35POFXKc_R-10" value="" style="endArrow=none;html=1;rounded=0;entryX=1;entryY=1;entryDx=0;entryDy=0;exitX=0.5;exitY=0;exitDx=0;exitDy=0;" edge="1" parent="1" source="CNSBDvhkYtrQtubJyw7s-173" target="CNSBDvhkYtrQtubJyw7s-135">
          <mxGeometry width="50" height="50" relative="1" as="geometry">
            <mxPoint x="400" y="240" as="sourcePoint" />
            <mxPoint x="450" y="190" as="targetPoint" />
          </mxGeometry>
        </mxCell>
        <mxCell id="X1T7yPIizh35POFXKc_R-11" value="" style="endArrow=none;html=1;rounded=0;entryX=0.5;entryY=1;entryDx=0;entryDy=0;exitX=0.5;exitY=0;exitDx=0;exitDy=0;" edge="1" parent="1" source="CNSBDvhkYtrQtubJyw7s-138" target="CNSBDvhkYtrQtubJyw7s-173">
          <mxGeometry width="50" height="50" relative="1" as="geometry">
            <mxPoint x="460" y="330" as="sourcePoint" />
            <mxPoint x="510" y="280" as="targetPoint" />
          </mxGeometry>
        </mxCell>
        <mxCell id="X1T7yPIizh35POFXKc_R-14" value="" style="endArrow=none;html=1;rounded=0;entryX=0.5;entryY=1;entryDx=0;entryDy=0;exitX=0.5;exitY=0;exitDx=0;exitDy=0;" edge="1" parent="1" source="CNSBDvhkYtrQtubJyw7s-175" target="CNSBDvhkYtrQtubJyw7s-140">
          <mxGeometry width="50" height="50" relative="1" as="geometry">
            <mxPoint x="670" y="340" as="sourcePoint" />
            <mxPoint x="720" y="290" as="targetPoint" />
          </mxGeometry>
        </mxCell>
        <mxCell id="X1T7yPIizh35POFXKc_R-16" value="" style="endArrow=none;html=1;rounded=0;exitX=1;exitY=0.5;exitDx=0;exitDy=0;entryX=0;entryY=0.5;entryDx=0;entryDy=0;" edge="1" parent="1" source="CNSBDvhkYtrQtubJyw7s-175" target="CNSBDvhkYtrQtubJyw7s-141">
          <mxGeometry width="50" height="50" relative="1" as="geometry">
            <mxPoint x="690" y="480" as="sourcePoint" />
            <mxPoint x="740" y="430" as="targetPoint" />
          </mxGeometry>
        </mxCell>
        <mxCell id="X1T7yPIizh35POFXKc_R-30" value="" style="endArrow=none;html=1;rounded=0;entryX=0.5;entryY=1;entryDx=0;entryDy=0;exitX=0.5;exitY=0;exitDx=0;exitDy=0;" edge="1" parent="1" source="CNSBDvhkYtrQtubJyw7s-174" target="CNSBDvhkYtrQtubJyw7s-135">
          <mxGeometry width="50" height="50" relative="1" as="geometry">
            <mxPoint x="400" y="440" as="sourcePoint" />
            <mxPoint x="360" y="160" as="targetPoint" />
            <Array as="points">
              <mxPoint x="360" y="440" />
              <mxPoint x="320" y="440" />
              <mxPoint x="320" y="320" />
              <mxPoint x="360" y="320" />
            </Array>
          </mxGeometry>
        </mxCell>
        <mxCell id="X1T7yPIizh35POFXKc_R-32" value="" style="endArrow=none;html=1;rounded=0;entryX=0.5;entryY=1;entryDx=0;entryDy=0;exitX=0.625;exitY=0;exitDx=0;exitDy=0;exitPerimeter=0;" edge="1" parent="1" source="CNSBDvhkYtrQtubJyw7s-134" target="CNSBDvhkYtrQtubJyw7s-143">
          <mxGeometry width="50" height="50" relative="1" as="geometry">
            <mxPoint x="160" y="100" as="sourcePoint" />
            <mxPoint x="180" y="100" as="targetPoint" />
          </mxGeometry>
        </mxCell>
        <mxCell id="X1T7yPIizh35POFXKc_R-37" value="" style="endArrow=none;html=1;rounded=0;entryX=0.5;entryY=1;entryDx=0;entryDy=0;exitX=0.25;exitY=0;exitDx=0;exitDy=0;" edge="1" parent="1" source="CNSBDvhkYtrQtubJyw7s-134" target="CNSBDvhkYtrQtubJyw7s-142">
          <mxGeometry width="50" height="50" relative="1" as="geometry">
            <mxPoint x="100" y="140" as="sourcePoint" />
            <mxPoint x="50" y="90" as="targetPoint" />
            <Array as="points">
              <mxPoint x="100" y="110" />
              <mxPoint x="50" y="110" />
            </Array>
          </mxGeometry>
        </mxCell>
        <mxCell id="X1T7yPIizh35POFXKc_R-38" value="" style="endArrow=none;html=1;rounded=0;exitX=1;exitY=0.5;exitDx=0;exitDy=0;entryX=0;entryY=0.5;entryDx=0;entryDy=0;" edge="1" parent="1" source="CNSBDvhkYtrQtubJyw7s-145" target="CNSBDvhkYtrQtubJyw7s-134">
          <mxGeometry width="50" height="50" relative="1" as="geometry">
            <mxPoint x="200" y="100" as="sourcePoint" />
            <mxPoint x="250" y="50" as="targetPoint" />
          </mxGeometry>
        </mxCell>
        <mxCell id="X1T7yPIizh35POFXKc_R-39" value="" style="endArrow=none;html=1;rounded=0;entryX=0.5;entryY=1;entryDx=0;entryDy=0;exitX=0.5;exitY=0;exitDx=0;exitDy=0;" edge="1" parent="1" source="CNSBDvhkYtrQtubJyw7s-144" target="CNSBDvhkYtrQtubJyw7s-134">
          <mxGeometry width="50" height="50" relative="1" as="geometry">
            <mxPoint x="210" y="110" as="sourcePoint" />
            <mxPoint x="260" y="60" as="targetPoint" />
          </mxGeometry>
        </mxCell>
        <mxCell id="X1T7yPIizh35POFXKc_R-41" value="" style="endArrow=none;html=1;rounded=0;entryX=0.5;entryY=1;entryDx=0;entryDy=0;exitX=0.5;exitY=0;exitDx=0;exitDy=0;" edge="1" parent="1" source="CNSBDvhkYtrQtubJyw7s-135" target="CNSBDvhkYtrQtubJyw7s-147">
          <mxGeometry width="50" height="50" relative="1" as="geometry">
            <mxPoint x="380" y="80" as="sourcePoint" />
            <mxPoint x="440" y="80" as="targetPoint" />
            <Array as="points">
              <mxPoint x="360" y="100" />
              <mxPoint x="440" y="100" />
            </Array>
          </mxGeometry>
        </mxCell>
        <mxCell id="X1T7yPIizh35POFXKc_R-43" value="" style="endArrow=none;html=1;rounded=0;entryX=0.5;entryY=1;entryDx=0;entryDy=0;exitX=0.25;exitY=0;exitDx=0;exitDy=0;" edge="1" parent="1" source="CNSBDvhkYtrQtubJyw7s-135" target="CNSBDvhkYtrQtubJyw7s-146">
          <mxGeometry width="50" height="50" relative="1" as="geometry">
            <mxPoint x="170" y="120" as="sourcePoint" />
            <mxPoint x="170" y="90" as="targetPoint" />
            <Array as="points">
              <mxPoint x="340" y="100" />
              <mxPoint x="317" y="100" />
            </Array>
          </mxGeometry>
        </mxCell>
        <mxCell id="X1T7yPIizh35POFXKc_R-44" value="" style="endArrow=none;html=1;rounded=0;entryX=0.5;entryY=1;entryDx=0;entryDy=0;exitX=0.5;exitY=0;exitDx=0;exitDy=0;" edge="1" parent="1" source="CNSBDvhkYtrQtubJyw7s-136" target="CNSBDvhkYtrQtubJyw7s-148">
          <mxGeometry width="50" height="50" relative="1" as="geometry">
            <mxPoint x="680" y="110" as="sourcePoint" />
            <mxPoint x="760" y="70" as="targetPoint" />
            <Array as="points">
              <mxPoint x="610" y="90" />
              <mxPoint x="640" y="90" />
              <mxPoint x="680" y="90" />
            </Array>
          </mxGeometry>
        </mxCell>
        <mxCell id="X1T7yPIizh35POFXKc_R-47" value="" style="endArrow=none;html=1;rounded=0;entryX=0.5;entryY=1;entryDx=0;entryDy=0;exitX=0.189;exitY=-0.039;exitDx=0;exitDy=0;exitPerimeter=0;" edge="1" parent="1" source="CNSBDvhkYtrQtubJyw7s-136" target="CNSBDvhkYtrQtubJyw7s-151">
          <mxGeometry width="50" height="50" relative="1" as="geometry">
            <mxPoint x="540" y="120" as="sourcePoint" />
            <mxPoint x="540" y="90" as="targetPoint" />
          </mxGeometry>
        </mxCell>
        <mxCell id="X1T7yPIizh35POFXKc_R-48" value="" style="endArrow=none;html=1;rounded=0;entryX=0;entryY=0.5;entryDx=0;entryDy=0;exitX=1;exitY=0.25;exitDx=0;exitDy=0;" edge="1" parent="1" source="CNSBDvhkYtrQtubJyw7s-136" target="CNSBDvhkYtrQtubJyw7s-149">
          <mxGeometry width="50" height="50" relative="1" as="geometry">
            <mxPoint x="770" y="60" as="sourcePoint" />
            <mxPoint x="770" y="30" as="targetPoint" />
            <Array as="points">
              <mxPoint x="690" y="115" />
            </Array>
          </mxGeometry>
        </mxCell>
        <mxCell id="X1T7yPIizh35POFXKc_R-49" value="" style="endArrow=none;html=1;rounded=0;entryX=0.5;entryY=0;entryDx=0;entryDy=0;exitX=1;exitY=0.5;exitDx=0;exitDy=0;" edge="1" parent="1" source="CNSBDvhkYtrQtubJyw7s-136" target="CNSBDvhkYtrQtubJyw7s-150">
          <mxGeometry width="50" height="50" relative="1" as="geometry">
            <mxPoint x="760" y="70" as="sourcePoint" />
            <mxPoint x="760" y="40" as="targetPoint" />
            <Array as="points">
              <mxPoint x="720" y="140" />
            </Array>
          </mxGeometry>
        </mxCell>
        <mxCell id="X1T7yPIizh35POFXKc_R-50" value="" style="endArrow=none;html=1;rounded=0;entryX=0.5;entryY=1;entryDx=0;entryDy=0;exitX=0;exitY=0.5;exitDx=0;exitDy=0;" edge="1" parent="1" source="CNSBDvhkYtrQtubJyw7s-176" target="CNSBDvhkYtrQtubJyw7s-171">
          <mxGeometry width="50" height="50" relative="1" as="geometry">
            <mxPoint x="430" y="240" as="sourcePoint" />
            <mxPoint x="430" y="210" as="targetPoint" />
            <Array as="points">
              <mxPoint x="480" y="200" />
            </Array>
          </mxGeometry>
        </mxCell>
        <mxCell id="X1T7yPIizh35POFXKc_R-51" value="" style="endArrow=none;html=1;rounded=0;entryX=1;entryY=0.5;entryDx=0;entryDy=0;exitX=0;exitY=0.5;exitDx=0;exitDy=0;" edge="1" parent="1" source="CNSBDvhkYtrQtubJyw7s-137" target="CNSBDvhkYtrQtubJyw7s-152">
          <mxGeometry width="50" height="50" relative="1" as="geometry">
            <mxPoint x="140" y="330" as="sourcePoint" />
            <mxPoint x="140" y="300" as="targetPoint" />
          </mxGeometry>
        </mxCell>
        <mxCell id="X1T7yPIizh35POFXKc_R-52" value="" style="endArrow=none;html=1;rounded=0;entryX=1;entryY=0.5;entryDx=0;entryDy=0;exitX=0;exitY=1;exitDx=0;exitDy=0;" edge="1" parent="1" source="CNSBDvhkYtrQtubJyw7s-137" target="CNSBDvhkYtrQtubJyw7s-155">
          <mxGeometry width="50" height="50" relative="1" as="geometry">
            <mxPoint x="130" y="330" as="sourcePoint" />
            <mxPoint x="130" y="300" as="targetPoint" />
            <Array as="points">
              <mxPoint x="117" y="315" />
            </Array>
          </mxGeometry>
        </mxCell>
        <mxCell id="X1T7yPIizh35POFXKc_R-53" value="" style="endArrow=none;html=1;rounded=0;entryX=0.25;entryY=1;entryDx=0;entryDy=0;exitX=0.755;exitY=0.07;exitDx=0;exitDy=0;exitPerimeter=0;" edge="1" parent="1" source="CNSBDvhkYtrQtubJyw7s-153" target="CNSBDvhkYtrQtubJyw7s-137">
          <mxGeometry width="50" height="50" relative="1" as="geometry">
            <mxPoint x="160" y="330" as="sourcePoint" />
            <mxPoint x="160" y="300" as="targetPoint" />
          </mxGeometry>
        </mxCell>
        <mxCell id="X1T7yPIizh35POFXKc_R-54" value="" style="endArrow=none;html=1;rounded=0;entryX=0.886;entryY=1.007;entryDx=0;entryDy=0;exitX=0.5;exitY=0;exitDx=0;exitDy=0;entryPerimeter=0;" edge="1" parent="1" source="CNSBDvhkYtrQtubJyw7s-154" target="CNSBDvhkYtrQtubJyw7s-137">
          <mxGeometry width="50" height="50" relative="1" as="geometry">
            <mxPoint x="190" y="320" as="sourcePoint" />
            <mxPoint x="190" y="290" as="targetPoint" />
          </mxGeometry>
        </mxCell>
        <mxCell id="X1T7yPIizh35POFXKc_R-55" value="" style="endArrow=none;html=1;rounded=0;entryX=1;entryY=0.25;entryDx=0;entryDy=0;" edge="1" parent="1" target="CNSBDvhkYtrQtubJyw7s-138">
          <mxGeometry width="50" height="50" relative="1" as="geometry">
            <mxPoint x="567" y="400" as="sourcePoint" />
            <mxPoint x="449" y="430" as="targetPoint" />
            <Array as="points">
              <mxPoint x="567" y="370" />
            </Array>
          </mxGeometry>
        </mxCell>
        <mxCell id="X1T7yPIizh35POFXKc_R-56" value="" style="endArrow=none;html=1;rounded=0;entryX=1;entryY=0.5;entryDx=0;entryDy=0;exitX=0.5;exitY=0;exitDx=0;exitDy=0;" edge="1" parent="1" source="CNSBDvhkYtrQtubJyw7s-156" target="CNSBDvhkYtrQtubJyw7s-138">
          <mxGeometry width="50" height="50" relative="1" as="geometry">
            <mxPoint x="500" y="420" as="sourcePoint" />
            <mxPoint x="440" y="470" as="targetPoint" />
            <Array as="points">
              <mxPoint x="480" y="380" />
            </Array>
          </mxGeometry>
        </mxCell>
        <mxCell id="X1T7yPIizh35POFXKc_R-57" value="" style="endArrow=none;html=1;rounded=0;entryX=0.5;entryY=1;entryDx=0;entryDy=0;exitX=0.5;exitY=0;exitDx=0;exitDy=0;" edge="1" parent="1" source="CNSBDvhkYtrQtubJyw7s-139" target="CNSBDvhkYtrQtubJyw7s-174">
          <mxGeometry width="50" height="50" relative="1" as="geometry">
            <mxPoint x="282" y="570" as="sourcePoint" />
            <mxPoint x="280" y="520" as="targetPoint" />
          </mxGeometry>
        </mxCell>
        <mxCell id="X1T7yPIizh35POFXKc_R-58" value="" style="endArrow=none;html=1;rounded=0;entryX=1;entryY=0.5;entryDx=0;entryDy=0;exitX=0.25;exitY=0;exitDx=0;exitDy=0;" edge="1" parent="1" source="CNSBDvhkYtrQtubJyw7s-139" target="CNSBDvhkYtrQtubJyw7s-158">
          <mxGeometry width="50" height="50" relative="1" as="geometry">
            <mxPoint x="302" y="560" as="sourcePoint" />
            <mxPoint x="300" y="510" as="targetPoint" />
            <Array as="points">
              <mxPoint x="340" y="535" />
            </Array>
          </mxGeometry>
        </mxCell>
        <mxCell id="X1T7yPIizh35POFXKc_R-60" value="" style="endArrow=none;html=1;rounded=0;exitX=0;exitY=0.5;exitDx=0;exitDy=0;entryX=1;entryY=0.5;entryDx=0;entryDy=0;" edge="1" parent="1" source="CNSBDvhkYtrQtubJyw7s-159" target="CNSBDvhkYtrQtubJyw7s-139">
          <mxGeometry width="50" height="50" relative="1" as="geometry">
            <mxPoint x="432" y="560" as="sourcePoint" />
            <mxPoint x="420" y="570" as="targetPoint" />
          </mxGeometry>
        </mxCell>
        <mxCell id="X1T7yPIizh35POFXKc_R-61" value="" style="endArrow=none;html=1;rounded=0;entryX=0.5;entryY=1;entryDx=0;entryDy=0;exitX=0.5;exitY=0;exitDx=0;exitDy=0;" edge="1" parent="1" source="CNSBDvhkYtrQtubJyw7s-160" target="CNSBDvhkYtrQtubJyw7s-139">
          <mxGeometry width="50" height="50" relative="1" as="geometry">
            <mxPoint x="466" y="665" as="sourcePoint" />
            <mxPoint x="414" y="595" as="targetPoint" />
          </mxGeometry>
        </mxCell>
        <mxCell id="X1T7yPIizh35POFXKc_R-62" value="" style="endArrow=none;html=1;rounded=0;entryX=1;entryY=0.5;entryDx=0;entryDy=0;exitX=0.128;exitY=0.988;exitDx=0;exitDy=0;exitPerimeter=0;" edge="1" parent="1" source="CNSBDvhkYtrQtubJyw7s-139" target="CNSBDvhkYtrQtubJyw7s-161">
          <mxGeometry width="50" height="50" relative="1" as="geometry">
            <mxPoint x="480" y="660" as="sourcePoint" />
            <mxPoint x="478" y="610" as="targetPoint" />
            <Array as="points">
              <mxPoint x="330" y="615" />
            </Array>
          </mxGeometry>
        </mxCell>
        <mxCell id="X1T7yPIizh35POFXKc_R-64" value="" style="endArrow=none;html=1;rounded=0;entryX=0.5;entryY=1;entryDx=0;entryDy=0;exitX=0.673;exitY=-0.016;exitDx=0;exitDy=0;exitPerimeter=0;" edge="1" parent="1" source="CNSBDvhkYtrQtubJyw7s-141" target="CNSBDvhkYtrQtubJyw7s-168">
          <mxGeometry width="50" height="50" relative="1" as="geometry">
            <mxPoint x="782" y="340" as="sourcePoint" />
            <mxPoint x="780" y="290" as="targetPoint" />
          </mxGeometry>
        </mxCell>
        <mxCell id="X1T7yPIizh35POFXKc_R-67" value="" style="endArrow=none;html=1;rounded=0;entryX=1;entryY=0.5;entryDx=0;entryDy=0;exitX=0.332;exitY=-0.039;exitDx=0;exitDy=0;exitPerimeter=0;" edge="1" parent="1" source="CNSBDvhkYtrQtubJyw7s-141" target="CNSBDvhkYtrQtubJyw7s-169">
          <mxGeometry width="50" height="50" relative="1" as="geometry">
            <mxPoint x="760" y="350" as="sourcePoint" />
            <mxPoint x="770" y="310" as="targetPoint" />
            <Array as="points">
              <mxPoint x="760" y="295" />
            </Array>
          </mxGeometry>
        </mxCell>
        <mxCell id="X1T7yPIizh35POFXKc_R-68" value="" style="endArrow=none;html=1;rounded=0;entryX=0.5;entryY=0;entryDx=0;entryDy=0;exitX=0.25;exitY=1;exitDx=0;exitDy=0;" edge="1" parent="1" source="CNSBDvhkYtrQtubJyw7s-141" target="CNSBDvhkYtrQtubJyw7s-167">
          <mxGeometry width="50" height="50" relative="1" as="geometry">
            <mxPoint x="622" y="520" as="sourcePoint" />
            <mxPoint x="620" y="470" as="targetPoint" />
          </mxGeometry>
        </mxCell>
        <mxCell id="X1T7yPIizh35POFXKc_R-69" value="" style="endArrow=none;html=1;rounded=0;entryX=0.5;entryY=1;entryDx=0;entryDy=0;exitX=0.5;exitY=0;exitDx=0;exitDy=0;" edge="1" parent="1" source="CNSBDvhkYtrQtubJyw7s-166" target="CNSBDvhkYtrQtubJyw7s-141">
          <mxGeometry width="50" height="50" relative="1" as="geometry">
            <mxPoint x="732" y="590" as="sourcePoint" />
            <mxPoint x="730" y="540" as="targetPoint" />
          </mxGeometry>
        </mxCell>
        <mxCell id="X1T7yPIizh35POFXKc_R-70" value="" style="endArrow=none;html=1;rounded=0;entryX=0.5;entryY=0;entryDx=0;entryDy=0;exitX=0;exitY=0.75;exitDx=0;exitDy=0;" edge="1" parent="1" source="CNSBDvhkYtrQtubJyw7s-140" target="CNSBDvhkYtrQtubJyw7s-163">
          <mxGeometry width="50" height="50" relative="1" as="geometry">
            <mxPoint x="562" y="520" as="sourcePoint" />
            <mxPoint x="560" y="470" as="targetPoint" />
          </mxGeometry>
        </mxCell>
        <mxCell id="X1T7yPIizh35POFXKc_R-72" value="" style="endArrow=none;html=1;rounded=0;entryX=1;entryY=0.5;entryDx=0;entryDy=0;exitX=0;exitY=0.25;exitDx=0;exitDy=0;" edge="1" parent="1" source="CNSBDvhkYtrQtubJyw7s-140" target="CNSBDvhkYtrQtubJyw7s-162">
          <mxGeometry width="50" height="50" relative="1" as="geometry">
            <mxPoint x="582" y="530" as="sourcePoint" />
            <mxPoint x="580" y="480" as="targetPoint" />
          </mxGeometry>
        </mxCell>
        <mxCell id="X1T7yPIizh35POFXKc_R-73" value="" style="endArrow=none;html=1;rounded=0;entryX=0.5;entryY=1;entryDx=0;entryDy=0;exitX=0.5;exitY=0;exitDx=0;exitDy=0;" edge="1" parent="1" source="CNSBDvhkYtrQtubJyw7s-140" target="CNSBDvhkYtrQtubJyw7s-165">
          <mxGeometry width="50" height="50" relative="1" as="geometry">
            <mxPoint x="622" y="520" as="sourcePoint" />
            <mxPoint x="620" y="470" as="targetPoint" />
          </mxGeometry>
        </mxCell>
        <mxCell id="X1T7yPIizh35POFXKc_R-74" value="&lt;h3&gt;&lt;b&gt;1&lt;/b&gt;&lt;/h3&gt;" style="text;html=1;align=center;verticalAlign=middle;whiteSpace=wrap;rounded=0;" vertex="1" parent="1">
          <mxGeometry x="357.14" y="540" width="20" height="20" as="geometry" />
        </mxCell>
        <mxCell id="X1T7yPIizh35POFXKc_R-75" value="" style="endArrow=none;html=1;rounded=0;exitX=1;exitY=0.5;exitDx=0;exitDy=0;entryX=0;entryY=0.5;entryDx=0;entryDy=0;" edge="1" parent="1" source="CNSBDvhkYtrQtubJyw7s-134" target="CNSBDvhkYtrQtubJyw7s-170">
          <mxGeometry width="50" height="50" relative="1" as="geometry">
            <mxPoint x="200" y="50" as="sourcePoint" />
            <mxPoint x="240" y="50" as="targetPoint" />
          </mxGeometry>
        </mxCell>
        <mxCell id="X1T7yPIizh35POFXKc_R-76" value="" style="endArrow=none;html=1;rounded=0;exitX=1;exitY=0.5;exitDx=0;exitDy=0;entryX=0;entryY=0.5;entryDx=0;entryDy=0;" edge="1" parent="1" source="CNSBDvhkYtrQtubJyw7s-170" target="CNSBDvhkYtrQtubJyw7s-135">
          <mxGeometry width="50" height="50" relative="1" as="geometry">
            <mxPoint x="200" y="30" as="sourcePoint" />
            <mxPoint x="240" y="30" as="targetPoint" />
          </mxGeometry>
        </mxCell>
        <mxCell id="X1T7yPIizh35POFXKc_R-77" value="" style="endArrow=none;html=1;rounded=0;exitX=1;exitY=0.5;exitDx=0;exitDy=0;entryX=0;entryY=0.5;entryDx=0;entryDy=0;" edge="1" parent="1" source="CNSBDvhkYtrQtubJyw7s-135" target="CNSBDvhkYtrQtubJyw7s-171">
          <mxGeometry width="50" height="50" relative="1" as="geometry">
            <mxPoint x="420" y="190" as="sourcePoint" />
            <mxPoint x="460" y="190" as="targetPoint" />
          </mxGeometry>
        </mxCell>
        <mxCell id="X1T7yPIizh35POFXKc_R-78" value="" style="endArrow=none;html=1;rounded=0;exitX=1;exitY=0.5;exitDx=0;exitDy=0;entryX=0;entryY=0.5;entryDx=0;entryDy=0;" edge="1" parent="1" source="CNSBDvhkYtrQtubJyw7s-171" target="CNSBDvhkYtrQtubJyw7s-136">
          <mxGeometry width="50" height="50" relative="1" as="geometry">
            <mxPoint x="420" y="200" as="sourcePoint" />
            <mxPoint x="460" y="200" as="targetPoint" />
          </mxGeometry>
        </mxCell>
        <mxCell id="X1T7yPIizh35POFXKc_R-79" value="&lt;h3&gt;&lt;b&gt;1&lt;/b&gt;&lt;/h3&gt;" style="text;html=1;align=center;verticalAlign=middle;whiteSpace=wrap;rounded=0;" vertex="1" parent="1">
          <mxGeometry x="160" y="120" width="20" height="20" as="geometry" />
        </mxCell>
        <mxCell id="X1T7yPIizh35POFXKc_R-80" value="&lt;h3&gt;&lt;b&gt;N&lt;/b&gt;&lt;/h3&gt;" style="text;html=1;align=center;verticalAlign=middle;whiteSpace=wrap;rounded=0;" vertex="1" parent="1">
          <mxGeometry x="540" y="120" width="20" height="20" as="geometry" />
        </mxCell>
        <mxCell id="X1T7yPIizh35POFXKc_R-81" value="&lt;h3&gt;&lt;b&gt;N&lt;/b&gt;&lt;/h3&gt;" style="text;html=1;align=center;verticalAlign=middle;whiteSpace=wrap;rounded=0;" vertex="1" parent="1">
          <mxGeometry x="320" y="160" width="20" height="20" as="geometry" />
        </mxCell>
        <mxCell id="X1T7yPIizh35POFXKc_R-82" value="&lt;h3&gt;&lt;b&gt;N&lt;/b&gt;&lt;/h3&gt;" style="text;html=1;align=center;verticalAlign=middle;whiteSpace=wrap;rounded=0;" vertex="1" parent="1">
          <mxGeometry x="300" y="120" width="20" height="20" as="geometry" />
        </mxCell>
        <mxCell id="X1T7yPIizh35POFXKc_R-83" value="&lt;h3&gt;&lt;b&gt;N&lt;/b&gt;&lt;/h3&gt;" style="text;html=1;align=center;verticalAlign=middle;whiteSpace=wrap;rounded=0;" vertex="1" parent="1">
          <mxGeometry x="700" y="340" width="20" height="20" as="geometry" />
        </mxCell>
        <mxCell id="X1T7yPIizh35POFXKc_R-84" value="&lt;h3&gt;&lt;b&gt;1&lt;/b&gt;&lt;/h3&gt;" style="text;html=1;align=center;verticalAlign=middle;whiteSpace=wrap;rounded=0;" vertex="1" parent="1">
          <mxGeometry x="360" y="160" width="20" height="20" as="geometry" />
        </mxCell>
        <mxCell id="X1T7yPIizh35POFXKc_R-85" value="&lt;h3&gt;&lt;b&gt;1&lt;/b&gt;&lt;/h3&gt;" style="text;html=1;align=center;verticalAlign=middle;whiteSpace=wrap;rounded=0;" vertex="1" parent="1">
          <mxGeometry x="640" y="280" width="20" height="20" as="geometry" />
        </mxCell>
        <mxCell id="X1T7yPIizh35POFXKc_R-86" value="&lt;h3&gt;&lt;b&gt;1&lt;/b&gt;&lt;/h3&gt;" style="text;html=1;align=center;verticalAlign=middle;whiteSpace=wrap;rounded=0;" vertex="1" parent="1">
          <mxGeometry x="197.14" y="240" width="20" height="20" as="geometry" />
        </mxCell>
        <mxCell id="X1T7yPIizh35POFXKc_R-87" value="&lt;h3&gt;&lt;b&gt;1&lt;/b&gt;&lt;/h3&gt;" style="text;html=1;align=center;verticalAlign=middle;whiteSpace=wrap;rounded=0;" vertex="1" parent="1">
          <mxGeometry x="400" y="340" width="20" height="20" as="geometry" />
        </mxCell>
        <mxCell id="X1T7yPIizh35POFXKc_R-89" value="&lt;h3&gt;&lt;b&gt;M&lt;/b&gt;&lt;/h3&gt;" style="text;html=1;align=center;verticalAlign=middle;whiteSpace=wrap;rounded=0;" vertex="1" parent="1">
          <mxGeometry x="400" y="120" width="20" height="20" as="geometry" />
        </mxCell>
        <mxCell id="X1T7yPIizh35POFXKc_R-93" value="&lt;h3&gt;&lt;b&gt;N&lt;/b&gt;&lt;/h3&gt;" style="text;html=1;align=center;verticalAlign=middle;whiteSpace=wrap;rounded=0;" vertex="1" parent="1">
          <mxGeometry x="400" y="160" width="20" height="20" as="geometry" />
        </mxCell>
      </root>
    </mxGraphModel>
  </diagram>
</mxfile>
